<svg width="30" height="31" viewBox="0 0 30 31" fill="none" xmlns="http://www.w3.org/2000/svg">
<g clip-path="url(#clip0_3613_5097)">
<rect x="5" y="7" width="20" height="18" fill="white"/>
<path fill-rule="evenodd" clip-rule="evenodd" d="M23.6842 0.5C27.1723 0.5 30 3.32768 30 6.81579V24.1842C30 27.6723 27.1723 30.5 23.6842 30.5H6.31579C2.82768 30.5 2.5432e-08 27.6723 0 24.1842V6.81579C0 3.32768 2.82768 0.5 6.31579 0.5H23.6842ZM18.0546 7.70009C15.4992 7.70022 13.3223 9.41367 12.6108 11.4902L8.28022 7.90363L4.80006 12.0191L7.8107 14.5263V22.3046H13.2252V12.5742C13.2252 11.1708 14.0488 10.3432 15.1727 10.343C16.4242 10.343 16.9035 10.9631 16.9035 12.7569V19.5499C16.9035 20.8489 17.1571 21.7924 17.6645 22.3801C19.4878 24.2557 23.191 22.937 24.6703 21.3208C24.739 21.2456 24.6345 21.1341 24.5446 21.1828C24.0986 21.4244 23.6437 21.5451 23.18 21.5452C22.5373 21.5452 22.2156 21.0813 22.2155 20.1536V13.1285C22.2155 10.3179 21.279 7.70009 18.0546 7.70009Z" fill="#1A1A1A"/>
</g>
<defs>
<clipPath id="clip0_3613_5097">
<rect width="30" height="30" fill="white" transform="translate(0 0.5)"/>
</clipPath>
</defs>
</svg>
